<svg xmlns="http://www.w3.org/2000/svg" viewBox="0 0 106 100">
<!-- SVG created with Arrow, by QuiverAI (https://quiver.ai) -->
  <style type="text/css">.cls-0 {fill:#0382C2;}</style>
  <path class="cls-0" d="m91 24.7"/>
  <path class="cls-0" d="m81.4 0.7c-0.4 0.4-0.9 0.9-0.9 1.7v37.6c4.4-4.4 8.2-10.4 9.8-21.4v-16.3c0-0.7-0.4-1.4-1.1-1.7h-7.5l-0.3 0.1z"/>
  <path class="cls-0" d="m67.8 15v34.1c2.8-1.3 6.5-3.1 9.7-6.3l-0.1 0.1 0.1-0.2v-27.7c0-1-0.9-2-2-2h-5.8c-1 0-1.9 0.8-1.9 2z"/>
  <path class="cls-0" d="m55 25.1v29.6l9.3-3.8 0.3-0.2 0.1-0.4v-25.5c-0.2-0.9-0.9-1.6-1.8-1.6h-6.1c-1 0-1.8 0.8-1.8 1.9z"/>
  <path class="cls-0" d="m89.2 29.6c-2.2 6.3-6.2 12.2-13.6 17.5-6.5 4.7-15.9 8.2-18 9.1l-9 3.7-26.3-10.3 25.9-11h0.3l3.5 1.5v-5.6l-0.2-0.6c-2.4-1.4-3.2-1.8-5.7-0.7l-31.5 14.2c-0.9 0.4-1.4 1.3-1.3 2.4 0 0.8 0.5 1.6 1.3 1.9l2.5 1.1 0.1 0.4v9c-1.1 0.7-2 2.1-2 3.3 0.1 2.2 1.7 3.9 3.8 4.1 2.2 0.1 3.7-1.6 3.6-4-0.1-1.3-0.8-2.3-1.9-3.2l0.1-8 5.3 2.2v9.6c0.2 2.8 1.9 5.6 4.4 7.5 2.8 2 8.4 5 18 5.1 5.8 0.1 10.7-0.6 14.7-2s5.6-3 6.5-4.3 1.4-2.9 1.4-5.6v-10.7l0.3-0.2c8.1-4.2 17.7-10.6 19.3-23.8 0.3-2.7 0.3-7.5 0.3-7.5l-0.5 2.2-0.3 1.3-1 1.4zm-23.4 36.3c0 2.4-2.2 4.5-5.9 5.7-3.3 1-7.4 2-13.2 2-6.9-0.2-11.9-1.4-14.1-4.1-0.8-0.9-1.4-2.1-1.4-3.2v-7.6l16.1 6c1.1 0.4 1.9 0.5 3.1 0.1 3.2-1.2 9.5-3.2 15.5-6.1l-0.1 7.2z"/>
  <path class="cls-0" d="m44.5 44.9c-0.9 0-1.5 0.8-1.5 1.6v7.5c0 0.8 0.3 1.3 1 1.5l3.9 1.6c0.6 0.2 1 0.2 1.4 0.1l2.1-0.8c0.4-0.1 0.7-0.5 0.7-0.9v-9c0-0.8-0.7-1.6-1.5-1.6h-6.1z"/>
  <path class="cls-0" d="m7.3 97.4c0.2 0.2 0.2 0.4 0.2 0.7 0 0.5-0.3 1-0.9 1h-5.1c-0.6 0-0.9-0.4-0.9-0.9v-9.5c0-0.5 0.3-1 0.9-1.1h5.1c0.6 0 0.9 0.4 0.9 0.9s-0.4 1-0.9 1h-4v3h3.4c0.6 0 1 0.4 1 1 0 0.4-0.4 0.8-0.8 0.8h-3.6v2.9h4c0.3 0 0.5 0.1 0.7 0.2z"/>
  <path class="cls-0" d="m17.3 88v10.2c0 0.6-0.4 1-0.9 1s-0.8-0.2-1-0.8c-0.7 0.6-1.5 1-2.4 1h-0.9c-1.6-0.1-3.4-1.9-3.4-4.4-0.1-2.6 1.6-4.7 3.9-4.7 1.1-0.1 1.9 0.3 2.7 1v-3.3c0-0.5 0.4-1 1-1s1 0.4 1 1zm-1.9 6.8c0-1.4-0.9-2.6-2.4-2.6-1.4 0-2.4 1.2-2.4 2.6 0 1.5 0.9 2.7 2.3 2.7 1.6 0.1 2.5-1.2 2.5-2.7z"/>
  <path class="cls-0" d="m19.6 95.7v-4.2c0-0.5 0.4-1 1-1s1.1 0.5 1.1 1v4.2c0 1.3 0.7 1.9 1.8 1.9 1.2 0.1 2-0.7 1.9-1.9v-4.2c0-0.5 0.5-1 1-1 0.6 0 1.1 0.4 1.1 1v4.4c0 2-1.3 3.5-3 3.5h-1.6c-2.1 0-3.3-1.5-3.3-3.7z"/>
  <path class="cls-0" d="m38.6 87.8c0.2 0.2 0.2 0.5 0.2 0.8 0 0.5-0.4 0.9-0.9 0.9h-2.9v8.7c0 0.5-0.4 1-1 1-0.7 0-1.1-0.3-1.3-1.1v-8.6h-2.7c-0.6 0-0.9-0.4-0.9-0.9s0.3-0.9 0.9-1h7.8c0.4 0 0.6 0.1 0.8 0.2z"/>
  <path class="cls-0" d="m45.7 91.4c0 0.4-0.5 1-0.9 0.9-0.4 0-0.8-0.2-1.2-0.2-0.8 0-1.7 1-1.7 2.3v3.9c0 0.6-0.4 1-1 1s-1-0.3-1-1v-6.7c0-0.5 0.4-1 1-1 0.5 0 1 0.4 1 1.2 0.6-0.8 1.5-1.4 2.6-1.4 0.8 0 1.2 0.4 1.2 1z"/>
  <path class="cls-0" d="m54.8 91.3v6.9c0 0.6-0.3 1-0.9 1-0.5 0-0.8-0.2-1-0.8-0.6 0.6-1.4 1-2.3 1h-0.9c-1.7 0-3.4-2-3.4-4.4 0-2.5 1.6-4.6 3.9-4.6 1.1 0 1.7 0.2 2.7 1 0.2-0.6 0.4-1 1-1 0.5 0 0.9 0.5 0.9 0.9zm-1.8 3.5c0-1.4-1-2.5-2.4-2.6-1.3 0-2.4 1.2-2.4 2.6-0.1 1.4 1 2.8 2.4 2.7 1.5 0.1 2.4-1.2 2.4-2.7z"/>
  <path class="cls-0" d="m56.7 94.8c0-2.4 1.6-4.4 4.4-4.4 1.3 0 3.2 0.4 3.2 1.5 0 0.7-0.4 1.1-1 1s-0.7-0.6-2-0.6c-1.4 0-2.6 1.1-2.6 2.5 0 1.5 1 2.8 2.6 2.8 1.3 0 1.6-0.6 2.1-0.7 0.6 0 1 0.4 1 1.1 0 0.9-1.7 1.4-3 1.4h-1.2c-2-0.1-3.5-2.1-3.5-4.6z"/>
  <path class="cls-0" d="m73.8 97.4c0.2 0.2 0.2 0.4 0.2 0.6 0 0.6-0.5 1.1-1.1 1.1-0.3 0-0.6-0.3-0.8-0.4l-2.9-3.1-0.9 0.9v1.7c0 0.7-0.3 1.1-1 1-0.6 0-0.9-0.4-0.9-1v-10.1c0-0.5 0.3-1.1 0.9-1.1s1 0.4 1 0.9v6.1l3.6-3.3c0.3-0.3 0.6-0.4 0.8-0.4 0.6 0 1 0.6 0.9 1.2l-2.9 2.8 3.1 3.1z"/>
  <path class="cls-0" d="m89 91.4c0 1.7-1.4 3.7-3.2 3.7h-3.2v3.1c0 0.6-0.4 1-1 1-0.5 0-1-0.4-1-1v-9.5c0-0.5 0.4-1 0.8-1.1h4.2c1.9 0 3.4 1.9 3.4 3.8zm-2.2 0c0-0.8-0.6-1.8-1.4-1.8h-2.8v3.6h2.8c0.8 0 1.4-0.8 1.4-1.8z"/>
  <path class="cls-0" d="m96.8 91.4c0 0.4-0.5 1.1-1 1-0.4 0-0.7-0.2-1.1-0.2-1 0-1.6 1-1.6 2.2v3.9c0 0.6-0.4 1-0.9 1-0.7 0-1.2-0.3-1.2-1.2v-6.6c0-0.5 0.4-1 1-1s1.1 0.4 1.1 1.3c0.5-0.8 1.3-1.4 2.5-1.4 0.8 0 1.2 0.4 1.2 1z"/>
  <path class="cls-0" d="m97.3 94.8c0-2.4 1.7-4.4 4.3-4.4 2.5 0 4.1 2 4.1 4.4 0 2.3-1.7 4.5-4 4.5h-0.6c-2.1 0-3.8-1.8-3.8-4.5zm6.6 0c0-1.4-0.9-2.6-2.3-2.6s-2.4 1.1-2.4 2.6 1 2.7 2.4 2.7 2.3-1.2 2.3-2.7z"/>
</svg>